<svg width="16" height="17" viewBox="0 0 16 17" fill="none" xmlns="http://www.w3.org/2000/svg">
<g clip-path="url(#clip0_1_1151)">
<path d="M16 8.5C16 12.9183 12.4183 16.5 8 16.5C3.58175 16.5 0 12.9183 0 8.5C0 8.50187 8 0.500906 8 0.5C12.4183 0.5 16 4.08175 16 8.5Z" fill="#0052B4"/>
<path d="M7.97858 8.49992H7.99998C7.99998 8.49267 7.99998 8.48573 7.99998 8.47852C7.99286 8.48567 7.98573 8.4928 7.97858 8.49992Z" fill="#F0F0F0"/>
<path d="M8 4.67391C8 3.26625 8 2.34384 8 0.5H7.99866C3.581 0.500719 0 4.08212 0 8.49997H4.17391V6.14959L6.52428 8.49997H7.97862C7.98578 8.49284 7.99291 8.48572 8.00003 8.47856C8.00003 7.93959 8.00003 7.45869 8.00003 7.02431L5.64962 4.67391H8Z" fill="#F0F0F0"/>
<path d="M4.04733 1.54395C2.79611 2.25641 1.75593 3.2966 1.04346 4.54782V8.50048H3.13043V3.63095V3.63091H7.99999C7.99999 2.9727 7.99999 2.34563 7.99999 1.54395H4.04733Z" fill="#D80027"/>
<path d="M7.99989 7.51707L5.15761 4.67482H4.17383C4.17383 4.67479 4.17383 4.67482 4.17383 4.67482L7.99986 8.50085H7.99989C7.99989 8.50085 7.99989 7.82257 7.99989 7.51707Z" fill="#D80027"/>
<path d="M4.82486 9.8916L5.26392 10.8097L6.25539 10.5805L5.81139 11.4962L6.6087 12.1285L5.61598 12.3522L5.61877 13.3699L4.82486 12.7332L4.03098 13.3699L4.03377 12.3522L3.04102 12.1285L3.83836 11.4962L3.3943 10.5805L4.38583 10.8097L4.82486 9.8916Z" fill="#F0F0F0"/>
<path d="M11.9777 11.6306L12.1972 12.0896L12.6929 11.9751L12.4709 12.4329L12.8696 12.7491L12.3732 12.8609L12.3746 13.3697L11.9777 13.0514L11.5807 13.3697L11.5821 12.8609L11.0858 12.7491L11.4844 12.4329L11.2624 11.9751L11.7581 12.0896L11.9777 11.6306Z" fill="#F0F0F0"/>
<path d="M9.9354 6.76074L10.1549 7.2198L10.6506 7.10518L10.4286 7.56302L10.8273 7.87918L10.331 7.99105L10.3323 8.49987L9.9354 8.18152L9.53846 8.49987L9.5398 7.99105L9.04346 7.87918L9.44211 7.56302L9.22011 7.10518L9.71586 7.2198L9.9354 6.76074Z" fill="#F0F0F0"/>
<path d="M11.9777 3.97852L12.1972 4.43758L12.6929 4.32298L12.4709 4.78083L12.8696 5.09695L12.3732 5.20886L12.3746 5.71767L11.9777 5.39933L11.5807 5.71767L11.5821 5.20886L11.0858 5.09695L11.4844 4.78083L11.2624 4.32298L11.7581 4.43758L11.9777 3.97852Z" fill="#F0F0F0"/>
<path d="M13.7615 6.06543L13.981 6.52449L14.4768 6.40987L14.2548 6.86771L14.6534 7.18387L14.157 7.29577L14.1584 7.80455L13.7615 7.48624L13.3646 7.80455L13.3659 7.29577L12.8696 7.18387L13.2682 6.86771L13.0462 6.40987L13.5419 6.52449L13.7615 6.06543Z" fill="#F0F0F0"/>
<path d="M12.4859 8.5L12.6585 9.03144H13.2173L12.7652 9.35991L12.938 9.89131L12.4859 9.56287L12.0338 9.89131L12.2065 9.35991L11.7544 9.03144H12.3132L12.4859 8.5Z" fill="#F0F0F0"/>
</g>
<defs>
<clipPath id="clip0_1_1151">
<rect width="16" height="16" fill="white" transform="translate(0 0.5)"/>
</clipPath>
</defs>
</svg>
