<svg width="16" height="17" viewBox="0 0 16 17" fill="none" xmlns="http://www.w3.org/2000/svg">
<g clip-path="url(#clip0_1_1170)">
<path d="M8 16.5C12.4183 16.5 16 12.9183 16 8.5C16 4.08172 12.4183 0.5 8 0.5C3.58172 0.5 0 4.08172 0 8.5C0 12.9183 3.58172 16.5 8 16.5Z" fill="#F0F0F0"/>
<path d="M16 8.49989C16 5.3282 14.1542 2.5877 11.4783 1.2937V15.706C14.1542 14.4121 16 11.6716 16 8.49989Z" fill="#D80027"/>
<path d="M0 8.49989C0 11.6716 1.84578 14.4121 4.52175 15.7061V1.2937C1.84578 2.5877 0 5.3282 0 8.49989Z" fill="#D80027"/>
<path d="M9.39131 9.54344L10.7826 8.84778L10.087 8.49997V7.80431L8.69566 8.49997L9.39131 7.10865H8.69566L8 6.06519L7.30434 7.10865H6.60869L7.30434 8.49997L5.91303 7.80431V8.49997L5.21741 8.84778L6.60869 9.54344L6.26088 10.2391H7.65219V11.2826H8.34781V10.2391H9.73913L9.39131 9.54344Z" fill="#D80027"/>
</g>
<defs>
<clipPath id="clip0_1_1170">
<rect width="16" height="16" fill="white" transform="translate(0 0.5)"/>
</clipPath>
</defs>
</svg>
