<svg width="16" height="17" viewBox="0 0 16 17" fill="none" xmlns="http://www.w3.org/2000/svg">
<g clip-path="url(#clip0_1_1117)">
<path d="M8 16.5C12.4183 16.5 16 12.9183 16 8.5C16 4.08172 12.4183 0.5 8 0.5C3.58172 0.5 0 4.08172 0 8.5C0 12.9183 3.58172 16.5 8 16.5Z" fill="#0052B4"/>
<path d="M7.99996 3.63086L8.25899 4.42802H9.09711L8.41902 4.92067L8.67805 5.71783L7.99996 5.22514L7.32183 5.71783L7.58086 4.92067L6.90277 4.42802H7.74093L7.99996 3.63086Z" fill="#FFDA44"/>
<path d="M4.55658 5.05685L5.30345 5.43735L5.89611 4.84473L5.76495 5.67254L6.5118 6.05307L5.68395 6.1842L5.55283 7.01207L5.1723 6.26523L4.34448 6.39638L4.93714 5.80373L4.55658 5.05685Z" fill="#FFDA44"/>
<path d="M3.13037 8.50051L3.92753 8.24148V7.40332L4.42015 8.08145L5.21734 7.82241L4.72462 8.50051L5.21734 9.1786L4.42015 8.9196L3.92753 9.59769V8.75954L3.13037 8.50051Z" fill="#FFDA44"/>
<path d="M4.55658 11.9435L4.93711 11.1966L4.34448 10.6039L5.17233 10.7351L5.55279 9.98828L5.68395 10.8161L6.51176 10.9473L5.76501 11.3278L5.89611 12.1556L5.30345 11.5629L4.55658 11.9435Z" fill="#FFDA44"/>
<path d="M7.99996 13.3699L7.7409 12.5727H6.90277L7.5809 12.0801L7.32183 11.283L7.99996 11.7756L8.67805 11.283L8.41902 12.0801L9.09711 12.5727H8.25896L7.99996 13.3699Z" fill="#FFDA44"/>
<path d="M11.4432 11.9435L10.6963 11.563L10.1037 12.1556L10.2348 11.3278L9.48804 10.9473L10.3158 10.8161L10.447 9.98828L10.8275 10.7351L11.6553 10.6039L11.0626 11.1967L11.4432 11.9435Z" fill="#FFDA44"/>
<path d="M12.8694 8.50051L12.0723 8.75954V9.59769L11.5796 8.91957L10.7825 9.1786L11.2752 8.50051L10.7825 7.82241L11.5797 8.08145L12.0723 7.40332V8.24151L12.8694 8.50051Z" fill="#FFDA44"/>
<path d="M11.4432 5.05682L11.0627 5.8037L11.6553 6.39635L10.8274 6.26516L10.447 7.01201L10.3158 6.18416L9.48804 6.05301L10.2348 5.67251L10.1037 4.84473L10.6964 5.43735L11.4432 5.05682Z" fill="#FFDA44"/>
</g>
<defs>
<clipPath id="clip0_1_1117">
<rect width="16" height="16" fill="white" transform="translate(0 0.5)"/>
</clipPath>
</defs>
</svg>
