<svg width="24" height="25" viewBox="0 0 24 25" fill="none" xmlns="http://www.w3.org/2000/svg">
<g clip-path="url(#clip0_1_1093)" filter="url(#filter0_d_1_1093)">
<path d="M12 20.5C16.4183 20.5 20 16.9183 20 12.5C20 8.08172 16.4183 4.5 12 4.5C7.58172 4.5 4 8.08172 4 12.5C4 16.9183 7.58172 20.5 12 20.5Z" fill="#F0F0F0"/>
<path d="M11.6522 12.4998H20C20 11.7777 19.9037 11.0782 19.7244 10.4128H11.6522V12.4998Z" fill="#D80027"/>
<path d="M11.6522 8.32598H18.8258C18.3361 7.52686 17.7099 6.82051 16.9798 6.23901H11.6522V8.32598Z" fill="#D80027"/>
<path d="M12 20.4996C13.8828 20.4996 15.6133 19.8489 16.9799 18.7605H7.02014C8.3867 19.8489 10.1172 20.4996 12 20.4996Z" fill="#D80027"/>
<path d="M5.17417 16.6739H18.8258C19.2189 16.0324 19.5239 15.3311 19.7244 14.5869H4.27557C4.4761 15.3311 4.78101 16.0324 5.17417 16.6739Z" fill="#D80027"/>
<path d="M7.70575 5.74931H8.43478L7.75666 6.24197L8.01569 7.03912L7.33759 6.54647L6.6595 7.03912L6.88325 6.35047C6.28619 6.84781 5.76287 7.4305 5.33162 8.07975H5.56522L5.13356 8.39334C5.06631 8.50553 5.00181 8.6195 4.94 8.73516L5.14612 9.36956L4.76156 9.09016C4.66597 9.29269 4.57853 9.49978 4.49994 9.71119L4.72703 10.4102H5.56522L4.88709 10.9028L5.14612 11.7L4.46803 11.2073L4.06184 11.5025C4.02119 11.8293 4 12.1622 4 12.5H12C12 8.08175 12 7.56087 12 4.5C10.4196 4.5 8.94641 4.95844 7.70575 5.74931ZM8.01569 11.7L7.33759 11.2073L6.6595 11.7L6.91853 10.9028L6.24041 10.4102H7.07859L7.33759 9.61303L7.59659 10.4102H8.43478L7.75666 10.9028L8.01569 11.7ZM7.75666 8.57241L8.01569 9.36956L7.33759 8.87691L6.6595 9.36956L6.91853 8.57241L6.24041 8.07975H7.07859L7.33759 7.28259L7.59659 8.07975H8.43478L7.75666 8.57241ZM10.8853 11.7L10.2072 11.2073L9.52906 11.7L9.78809 10.9028L9.10997 10.4102H9.94816L10.2072 9.61303L10.4662 10.4102H11.3043L10.6262 10.9028L10.8853 11.7ZM10.6262 8.57241L10.8853 9.36956L10.2072 8.87691L9.52906 9.36956L9.78809 8.57241L9.10997 8.07975H9.94816L10.2072 7.28259L10.4662 8.07975H11.3043L10.6262 8.57241ZM10.6262 6.24197L10.8853 7.03912L10.2072 6.54647L9.52906 7.03912L9.78809 6.24197L9.10997 5.74931H9.94816L10.2072 4.95216L10.4662 5.74931H11.3043L10.6262 6.24197Z" fill="#0052B4"/>
</g>
<defs>
<filter id="filter0_d_1_1093" x="0" y="0.5" width="24" height="24" filterUnits="userSpaceOnUse" color-interpolation-filters="sRGB">
<feFlood flood-opacity="0" result="BackgroundImageFix"/>
<feColorMatrix in="SourceAlpha" type="matrix" values="0 0 0 0 0 0 0 0 0 0 0 0 0 0 0 0 0 0 127 0" result="hardAlpha"/>
<feOffset/>
<feGaussianBlur stdDeviation="2"/>
<feComposite in2="hardAlpha" operator="out"/>
<feColorMatrix type="matrix" values="0 0 0 0 0 0 0 0 0 0 0 0 0 0 0 0 0 0 0.15 0"/>
<feBlend mode="normal" in2="BackgroundImageFix" result="effect1_dropShadow_1_1093"/>
<feBlend mode="normal" in="SourceGraphic" in2="effect1_dropShadow_1_1093" result="shape"/>
</filter>
<clipPath id="clip0_1_1093">
<rect width="16" height="16" fill="white" transform="translate(4 4.5)"/>
</clipPath>
</defs>
</svg>
