<svg width="16" height="17" viewBox="0 0 16 17" fill="none" xmlns="http://www.w3.org/2000/svg">
<g clip-path="url(#clip0_1_1131)">
<path d="M8 16.5C12.4183 16.5 16 12.9183 16 8.5C16 4.08172 12.4183 0.5 8 0.5C3.58172 0.5 0 4.08172 0 8.5C0 12.9183 3.58172 16.5 8 16.5Z" fill="#F0F0F0"/>
<path d="M1.65373 3.62915C1.02532 4.44674 0.55148 5.38909 0.275574 6.41281H4.43739L1.65373 3.62915Z" fill="#0052B4"/>
<path d="M15.7244 6.41278C15.4485 5.38909 14.9747 4.44674 14.3463 3.62915L11.5627 6.41278H15.7244Z" fill="#0052B4"/>
<path d="M0.275574 10.5872C0.551511 11.6108 1.02535 12.5532 1.65373 13.3708L4.43729 10.5872H0.275574Z" fill="#0052B4"/>
<path d="M12.8705 2.15382C12.0529 1.52542 11.1106 1.05157 10.0869 0.775635V4.93742L12.8705 2.15382Z" fill="#0052B4"/>
<path d="M3.12939 14.8463C3.94699 15.4747 4.88933 15.9486 5.91302 16.2245V12.0627L3.12939 14.8463Z" fill="#0052B4"/>
<path d="M5.91299 0.775635C4.8893 1.05157 3.94696 1.52542 3.12939 2.15379L5.91299 4.93738V0.775635Z" fill="#0052B4"/>
<path d="M10.087 16.2245C11.1107 15.9486 12.053 15.4747 12.8706 14.8463L10.087 12.0627V16.2245Z" fill="#0052B4"/>
<path d="M11.5626 10.5872L14.3462 13.3708C14.9746 12.5532 15.4485 11.6108 15.7244 10.5872H11.5626Z" fill="#0052B4"/>
<path d="M15.9323 7.45653H9.04353H9.0435V0.567719C8.70191 0.52325 8.35366 0.5 8 0.5C7.64628 0.5 7.29809 0.52325 6.95653 0.567719V7.45647V7.4565H0.0677188C0.02325 7.79809 0 8.14634 0 8.5C0 8.85372 0.02325 9.20191 0.0677188 9.54347H6.95647H6.9565V16.4323C7.29809 16.4768 7.64628 16.5 8 16.5C8.35366 16.5 8.70191 16.4768 9.04347 16.4323V9.54353V9.5435H15.9323C15.9768 9.20191 16 8.85372 16 8.5C16 8.14634 15.9768 7.79809 15.9323 7.45653Z" fill="#D80027"/>
<path d="M10.087 10.5869L13.6569 14.1568C13.821 13.9927 13.9777 13.8211 14.1271 13.6432L11.0708 10.5869H10.087V10.5869Z" fill="#D80027"/>
<path d="M5.91305 10.5869H5.91298L2.34314 14.1568C2.50726 14.3209 2.67886 14.4776 2.85673 14.627L5.91305 11.5706V10.5869Z" fill="#D80027"/>
<path d="M5.91293 6.41274V6.41268L2.34305 2.84277C2.17887 3.0069 2.02224 3.17849 1.8728 3.35637L4.92915 6.41271H5.91293V6.41274Z" fill="#D80027"/>
<path d="M10.087 6.4132L13.6569 2.84327C13.4928 2.67908 13.3212 2.52245 13.1433 2.37305L10.087 5.42939V6.4132Z" fill="#D80027"/>
</g>
<defs>
<clipPath id="clip0_1_1131">
<rect width="16" height="16" fill="white" transform="translate(0 0.5)"/>
</clipPath>
</defs>
</svg>
